<svg width="465" height="375" viewBox="0 0 465 375" fill="none" xmlns="http://www.w3.org/2000/svg">
<g clip-path="url(#clip0_1104_18561)">
<path d="M8.09999 282C26.8 317.1 92.1 318.9 222 321C426.6 324.3 449.3 293.3 456.1 281C470.9 254.1 465.1 215.3 445 191.9C418.3 160.9 364 154.1 313.9 181.5C325.7 132.7 289 85.5001 238.6 78.9001C191.4 72.8001 144.4 103.9 136.1 150C123.4 143 95.9 130.4 67.2 139C12.6 155.4 -14.8 239 8.09999 282Z" fill="#FFECEC"/>
<path d="M203 376C312.905 376 402 373.538 402 370.5C402 367.463 312.905 365 203 365C93.0953 365 4 367.463 4 370.5C4 373.538 93.0953 376 203 376Z" fill="#7CA2B6"/>
<path d="M103.5 369.5C105 362.7 107.3 354.9 110.5 346.5C114 337.5 117.8 329.9 121.5 323.5C123.5 324.5 125.5 325.5 127.5 326.5C125.5 329.2 122.9 332.9 120.5 337.5C118 342.4 116.6 346.2 115.5 349.5C113.8 354.4 111.9 361.2 110.5 369.5C108.2 369.5 105.8 369.5 103.5 369.5Z" fill="#1E6C98"/>
<path d="M135.5 373C137 366.2 139.3 358.4 142.5 350C146 341 149.8 333.4 153.5 327C155.5 328 157.5 329 159.5 330C157.5 332.7 154.9 336.4 152.5 341C150 345.9 148.6 349.7 147.5 353C145.8 357.9 143.9 364.7 142.5 373C140.2 373 137.8 373 135.5 373Z" fill="#1E6C98"/>
<path d="M285.5 374C284 366.9 281.7 358.8 278.5 350C275 340.7 271.2 332.6 267.5 326C265.5 327 263.5 328.1 261.5 329.1C263.5 331.9 266.1 335.7 268.5 340.6C271 345.7 272.4 349.7 273.5 353.1C275.2 358.3 277.1 365.3 278.5 374C280.8 374 283.2 374 285.5 374Z" fill="#1E6C98"/>
<path d="M247.5 370C245.9 361.6 244.1 352.9 242 344C241 339.9 240 335.9 239 332C233.8 329.7 231.4 331.1 232 333C232.1 333.4 232.4 334.4 233 336C233.9 338.7 234.8 340.5 235 341C236.5 344.5 238.1 350.3 239 355C239.8 358.9 240.4 364 240.5 370C242.8 370 245.2 370 247.5 370Z" fill="#1E6C98"/>
<path d="M119 135C117.2 135.8 109.7 139.3 106 147C103.8 151.6 103.9 155.6 104 161C104.2 175.4 103.7 188.6 103 196C102.2 205 101.6 211.8 98.5 220.5C92 238.7 88.5 246.5 88.5 246.5C87.4 248.9 86.5 250.8 86.5 253.5C86.4 260 91.3 262.2 95.5 270.5C96.4 272.2 97.8 277.7 100.5 288.5C104.5 304.3 104 303 104.5 304.5C106.4 310.5 111.3 325.5 123.5 332.5C125.5 333.6 128.7 335.2 147.5 336.5C164.1 337.7 176.6 337.5 177.5 337.5C232.7 336.7 251.9 330.5 266.5 330.5C267.3 330.5 269.7 330.5 272.5 329.5C278.8 327.2 282.2 321.7 283.5 319.5C283.8 319 290.4 307.8 288.5 297.5C288.3 296.5 287.9 294.7 288.5 292.5C289.6 288.5 293.3 286.3 294.5 285.5C302.1 280.7 310.9 268.7 312.5 258.5C312.6 257.6 314.2 246.5 307.5 239.5C301.3 233 290.9 233.2 280.5 234.5C238.4 239.9 229.1 260.1 211.5 255.5C190 249.9 175.9 212.5 174.5 185.5C173.4 164.4 180.2 153.5 171.5 143.5C161.6 132.1 140.5 132.4 131.5 132.5C128 132.5 123.7 132.9 119 135Z" fill="#9FB6C2"/>
<path d="M154.3 269.7C156.2 271.1 158.9 273.6 160.5 277.5C161.1 279 161.4 280.5 161.6 281.9C162.2 287.4 159.9 291.7 159.5 292.5C163.5 292.5 167.5 292.5 171.5 292.5C204.8 291.2 238.2 289.8 271.5 288.5C253.7 281.9 231.1 275.3 204.5 271.5C203.2 271.3 201.9 271.1 200.7 271C195.1 270.3 189.6 269.7 184.4 269.3C177.1 268.7 170.2 268.5 163.6 268.4C161.9 268.4 160.2 268.4 158.5 268.4L154.3 269.7Z" fill="#7CA2B6"/>
<path d="M257.5 279.5C260.6 281.7 263.8 279.4 270.5 281.5C276.6 283.4 280.8 287.3 283.5 290.5C287.1 288.6 295.5 283.6 300.5 273.5C301.6 271.4 309.6 254.7 301.5 244.5C293.3 234.1 272.1 235.5 261.5 246.5C251.6 256.7 251.2 275 257.5 279.5Z" fill="#7CA2B6"/>
<path d="M91.5 243.5C93.8 242.3 99.7 239.7 107.5 240.5C115.2 241.3 120.5 244.9 122.5 246.5C121.5 240.1 120.5 230.3 121.5 218.5C124.2 188.3 137.7 175.3 130.5 159.5C126.4 150.5 117 143.6 112.5 145.5C105.6 148.4 114 170.3 109.5 198.5C106.4 217.7 98.6 232.8 91.5 243.5Z" fill="#7CA2B6"/>
<path d="M118.5 226.3C121.3 225.6 128.4 224.2 137.8 224.6C147.1 225 153.4 227.1 155.9 228C154.7 224.4 153.4 218.9 154.7 212.3C157.9 195.4 174.2 188.1 165.5 179.2C160.6 174.2 149.2 170.3 143.8 171.3C135.5 172.9 145.6 185.2 140.2 201C136.5 211.8 127 220.3 118.5 226.3Z" fill="#7CA2B6"/>
<path d="M453.5 227.4L220.5 216.7C216.7 216.5 213.8 213.3 213.9 209.5L218.2 114.9C218.4 111.1 221.6 108.2 225.4 108.3L458.4 119C462.2 119.2 465.1 122.4 465 126.2L460.7 220.8C460.5 224.7 457.3 227.6 453.5 227.4Z" fill="#9FB6C2"/>
<path d="M448.6 231.1L219.6 220.6C215.8 220.4 212.9 217.2 213 213.4L217.3 118.8C217.5 115 220.7 112.1 224.5 112.2L453.5 122.7C457.3 122.9 460.2 126.1 460.1 129.9L455.8 224.5C455.6 228.4 452.4 231.3 448.6 231.1Z" fill="#C3D0D7"/>
<path d="M451.996 125.821L226.222 115.493L221.629 215.893L447.403 226.22L451.996 125.821Z" fill="#EDF1F3"/>
<path d="M450.629 126.648L401.078 124.381L400.411 138.967L449.961 141.233L450.629 126.648Z" fill="#9FB6C2"/>
<path d="M449.566 145.343L400.215 143.085L399.475 159.269L448.826 161.527L449.566 145.343Z" fill="#9FB6C2"/>
<path d="M448.565 166.347L399.214 164.089L398.474 180.273L447.825 182.531L448.565 166.347Z" fill="#9FB6C2"/>
<path d="M431.981 187.84L413.399 186.99L412.659 203.174L431.241 204.024L431.981 187.84Z" fill="#9FB6C2"/>
<path d="M446.736 208.245L397.386 205.988L396.7 220.973L446.051 223.23L446.736 208.245Z" fill="#9FB6C2"/>
<path d="M397.956 124.516L227.227 116.707L226.569 131.092L397.298 138.902L397.956 124.516Z" fill="#9FB6C2"/>
<path d="M396.802 142.901L226.872 135.127L226.132 151.311L396.062 159.084L396.802 142.901Z" fill="#9FB6C2"/>
<path d="M395.601 163.901L225.671 156.127L224.93 172.311L394.86 180.084L395.601 163.901Z" fill="#9FB6C2"/>
<path d="M395.6 164.9L394.9 179.4L393.1 179.3L378 178.5H376.2L361.1 177.7L359.4 177.6L344.2 176.9L342.5 176.8L327.3 176.1L325.6 176L310.5 175.3L308.7 175.2L293.6 174.5L291.8 174.4L276.7 173.6H275L259.8 172.8L258.1 172.7L242.9 172L241.2 171.9L226 171.2L225 171.1L225.7 156.7L226.7 156.8L241.8 157.5L243.6 157.6L258.7 158.3L260.5 158.4L275.6 159.1L277.3 159.2L292.5 159.9L294.2 160L309.4 160.7L311.1 160.8L326.3 161.6H328L343.1 162.4L344.9 162.5L360 163.2L361.7 163.3L376.9 164L378.6 164.1L393.8 164.8L395.6 164.9Z" fill="#9FB6C2"/>
<path d="M241.8 157.5L241.2 171.9L226 171.2L226.7 156.8L241.8 157.5Z" fill="#EDF1F3"/>
<path d="M258.7 158.3L258.1 172.7L242.9 172L243.6 157.6L258.7 158.3Z" fill="#EDF1F3"/>
<path d="M275.6 159.1L275 173.6L259.8 172.8L260.5 158.4L275.6 159.1Z" fill="#EDF1F3"/>
<path d="M292.5 159.9L291.8 174.4L276.7 173.6L277.3 159.2L292.5 159.9Z" fill="#EDF1F3"/>
<path d="M309.4 160.7L308.7 175.2L293.6 174.5L294.2 160L309.4 160.7Z" fill="#EDF1F3"/>
<path d="M326.3 161.6L325.6 176L310.5 175.3L311.1 160.8L326.3 161.6Z" fill="#EDF1F3"/>
<path d="M343.1 162.4L342.5 176.8L327.3 176.1L328 161.6L343.1 162.4Z" fill="#EDF1F3"/>
<path d="M360 163.2L359.4 177.6L344.2 176.9L344.9 162.5L360 163.2Z" fill="#EDF1F3"/>
<path d="M376.9 164L376.2 178.5L361.1 177.7L361.7 163.3L376.9 164Z" fill="#EDF1F3"/>
<path d="M393.8 164.8L393.1 179.3L378 178.5L378.6 164.1L393.8 164.8Z" fill="#EDF1F3"/>
<path d="M414.8 166L414.2 180L399.4 179.3L400.1 165.3L414.8 166Z" fill="#EDF1F3"/>
<path d="M431.1 166.8L430.5 180.8L415.8 180.1L416.4 166L431.1 166.8Z" fill="#EDF1F3"/>
<path d="M447.6 167.6L446.9 181.6L432.2 180.9L432.8 166.8L447.6 167.6Z" fill="#EDF1F3"/>
<path d="M429.9 189L429.3 203L414.6 202.3L415.2 188.2L429.9 189Z" fill="#EDF1F3"/>
<path d="M416 145L415.4 159L400.7 158.3L401.3 144.3L416 145Z" fill="#EDF1F3"/>
<path d="M432.4 145.8L431.7 159.8L417 159.1L417.7 145.1L432.4 145.8Z" fill="#EDF1F3"/>
<path d="M448.8 146.6L448.2 160.6L433.4 159.9L434.1 145.9L448.8 146.6Z" fill="#EDF1F3"/>
<path d="M413.2 207.6L412.5 220.3L398.2 219.7L398.8 207L413.2 207.6Z" fill="#EDF1F3"/>
<path d="M429.1 208.3L428.5 221L414.1 220.4L414.8 207.7L429.1 208.3Z" fill="#EDF1F3"/>
<path d="M445.1 209L444.5 221.8L430.1 221.1L430.8 208.4L445.1 209Z" fill="#EDF1F3"/>
<path d="M394.501 186.105L224.571 178.332L223.831 194.516L393.761 202.289L394.501 186.105Z" fill="#9FB6C2"/>
<path d="M394.268 205.905L224.338 198.132L223.653 213.117L393.583 220.89L394.268 205.905Z" fill="#9FB6C2"/>
<path d="M240.6 179.7L239.9 194.1L224.8 193.4L225.4 179L240.6 179.7Z" fill="#EDF1F3"/>
<path d="M257.5 180.5L256.8 194.9L241.7 194.2L242.3 179.8L257.5 180.5Z" fill="#EDF1F3"/>
<path d="M274.4 181.3L273.7 195.8L258.6 195L259.3 180.6L274.4 181.3Z" fill="#EDF1F3"/>
<path d="M291.3 182.1L290.6 196.6L275.4 195.8L276.1 181.4L291.3 182.1Z" fill="#EDF1F3"/>
<path d="M308.2 183L307.5 197.4L292.3 196.7L293 182.2L308.2 183Z" fill="#EDF1F3"/>
<path d="M325 183.8L324.4 198.2L309.2 197.5L309.9 183L325 183.8Z" fill="#EDF1F3"/>
<path d="M341.9 184.6L341.2 199L326.1 198.3L326.7 183.9L341.9 184.6Z" fill="#EDF1F3"/>
<path d="M358.8 185.4L358.1 199.8L343 199.1L343.6 184.7L358.8 185.4Z" fill="#EDF1F3"/>
<path d="M375.6 186.2L375 200.7L359.8 199.9L360.5 185.5L375.6 186.2Z" fill="#EDF1F3"/>
<path d="M392.5 187L391.9 201.5L376.7 200.7L377.4 186.3L392.5 187Z" fill="#EDF1F3"/>
<path d="M253.6 200.6L253 213L239.1 212.3L239.7 199.9L253.6 200.6Z" fill="#EDF1F3"/>
<path d="M269 201.3L268.4 213.7L254.6 213L255.2 200.6L269 201.3Z" fill="#EDF1F3"/>
<path d="M284.5 202L283.9 214.4L270 213.8L270.6 201.3L284.5 202Z" fill="#EDF1F3"/>
<path d="M299.9 202.7L299.3 215.1L285.4 214.5L286 202L299.9 202.7Z" fill="#EDF1F3"/>
<path d="M315.4 203.4L314.8 215.8L300.9 215.2L301.5 202.7L315.4 203.4Z" fill="#EDF1F3"/>
<path d="M330.8 204.1L330.2 216.5L316.4 215.9L317 203.4L330.8 204.1Z" fill="#EDF1F3"/>
<path d="M346.2 204.8L345.6 217.2L331.8 216.6L332.4 204.1L346.2 204.8Z" fill="#EDF1F3"/>
<path d="M361.7 205.5L361.1 217.9L347.2 217.3L347.8 204.8L361.7 205.5Z" fill="#EDF1F3"/>
<path d="M377.1 206.2L376.5 218.6L362.6 218L363.2 205.5L377.1 206.2Z" fill="#EDF1F3"/>
<path d="M392.5 206.9L391.9 219.3L378.1 218.7L378.7 206.3L392.5 206.9Z" fill="#EDF1F3"/>
<path d="M242.5 118.8L241.9 130.8L228.1 130.1L228.6 118.1L242.5 118.8Z" fill="#EDF1F3"/>
<path d="M272.7 119.8L272.1 132.3L258.3 131.6L258.9 119.2L272.7 119.8Z" fill="#EDF1F3"/>
<path d="M288.2 120.5L287.6 133L273.7 132.3L274.3 119.9L288.2 120.5Z" fill="#EDF1F3"/>
<path d="M303.6 121.2L303 133.7L289.1 133L289.7 120.6L303.6 121.2Z" fill="#EDF1F3"/>
<path d="M319.1 121.9L318.5 134.4L304.6 133.7L305.2 121.3L319.1 121.9Z" fill="#EDF1F3"/>
<path d="M334.5 122.6L333.9 135.1L320.1 134.4L320.7 122L334.5 122.6Z" fill="#EDF1F3"/>
<path d="M349.9 123.3L349.3 135.8L335.5 135.1L336.1 122.7L349.9 123.3Z" fill="#EDF1F3"/>
<path d="M365.4 124.1L364.8 136.5L350.9 135.8L351.5 123.4L365.4 124.1Z" fill="#EDF1F3"/>
<path d="M380.8 124.8L380.2 137.2L366.3 136.5L366.9 124.1L380.8 124.8Z" fill="#EDF1F3"/>
<path d="M396.2 125.5L395.6 137.9L381.8 137.2L382.4 124.8L396.2 125.5Z" fill="#EDF1F3"/>
<path d="M417.5 126.2L416.9 138.9L402.7 138.3L403.4 125.5L417.5 126.2Z" fill="#EDF1F3"/>
<path d="M433.3 126.9L432.7 139.6L418.5 139L419.1 126.3L433.3 126.9Z" fill="#EDF1F3"/>
<path d="M449.1 127.6L448.5 140.3L434.3 139.7L434.9 127L449.1 127.6Z" fill="#EDF1F3"/>
<path d="M244.1 136.2L243.4 151.2L228.4 150.4L229.1 135.4L244.1 136.2Z" fill="#EDF1F3"/>
<path d="M260.8 137L260.1 152L245.2 151.3L245.8 136.3L260.8 137Z" fill="#EDF1F3"/>
<path d="M277.5 137.9L276.9 152.9L261.9 152.1L262.5 137.1L277.5 137.9Z" fill="#EDF1F3"/>
<path d="M294.2 138.7L293.6 153.7L278.6 153L279.2 138L294.2 138.7Z" fill="#EDF1F3"/>
<path d="M311 139.6L310.3 154.6L295.3 153.8L295.9 138.8L311 139.6Z" fill="#EDF1F3"/>
<path d="M327.7 140.4L327 155.4L312 154.7L312.7 139.7L327.7 140.4Z" fill="#EDF1F3"/>
<path d="M344.4 141.3L343.7 156.3L328.7 155.5L329.4 140.5L344.4 141.3Z" fill="#EDF1F3"/>
<path d="M361.1 142.1L360.4 157.1L345.4 156.4L346.1 141.4L361.1 142.1Z" fill="#EDF1F3"/>
<path d="M377.8 143L377.1 158L362.1 157.2L362.8 142.2L377.8 143Z" fill="#EDF1F3"/>
<path d="M394.5 143.8L393.9 158.8L378.8 158.1L379.5 143.1L394.5 143.8Z" fill="#EDF1F3"/>
<path d="M270.521 162.092L270.143 169.158C270.085 170.252 269.729 171.078 269.076 171.636C268.434 172.195 267.59 172.446 266.545 172.391C265.451 172.332 264.591 171.975 263.964 171.318C263.337 170.662 263.054 169.762 263.115 168.619L265.628 168.754C265.605 169.187 265.676 169.522 265.841 169.758C266.007 169.985 266.257 170.107 266.593 170.125C266.898 170.141 267.14 170.055 267.318 169.867C267.496 169.679 267.595 169.398 267.615 169.023L267.993 161.957L270.521 162.092Z" fill="#FF2929"/>
<path d="M284.482 173.66C283.723 173.619 283.05 173.459 282.462 173.181C281.874 172.902 281.41 172.512 281.071 172.009C280.743 171.507 280.586 170.916 280.603 170.235L283.294 170.379C283.312 170.765 283.43 171.068 283.645 171.287C283.861 171.497 284.152 171.611 284.516 171.63C284.891 171.65 285.191 171.583 285.417 171.427C285.643 171.261 285.765 171.025 285.781 170.72C285.795 170.463 285.717 170.247 285.549 170.07C285.39 169.893 285.186 169.744 284.935 169.622C284.695 169.5 284.347 169.358 283.891 169.195C283.232 168.952 282.696 168.716 282.283 168.486C281.87 168.257 281.522 167.932 281.238 167.511C280.954 167.091 280.83 166.555 280.865 165.905C280.916 164.939 281.306 164.204 282.035 163.699C282.765 163.185 283.691 162.958 284.814 163.018C285.958 163.079 286.864 163.404 287.535 163.994C288.205 164.573 288.539 165.352 288.536 166.331L285.801 166.184C285.8 165.848 285.69 165.58 285.474 165.381C285.258 165.172 284.972 165.057 284.617 165.038C284.312 165.022 284.061 165.093 283.865 165.25C283.669 165.398 283.563 165.624 283.547 165.93C283.529 166.265 283.672 166.535 283.978 166.739C284.283 166.943 284.765 167.171 285.424 167.424C286.082 167.687 286.612 167.932 287.015 168.162C287.428 168.391 287.776 168.711 288.061 169.122C288.345 169.532 288.471 170.048 288.437 170.669C288.406 171.26 288.224 171.789 287.893 172.256C287.571 172.723 287.117 173.084 286.53 173.339C285.943 173.595 285.261 173.701 284.482 173.66Z" fill="#FF2929"/>
<path d="M367.4 34.9001C367.6 31.5001 367.7 27.7001 367.4 23.4001C367 18.1001 366.1 13.4001 365.1 9.6001C364.7 13.4001 364.5 18.1001 365.1 23.4001C365.5 27.8001 366.4 31.7001 367.4 34.9001Z" fill="#003553"/>
<path d="M367.4 23.4002C366.8 22.6002 368.3 20.6002 369.7 18.8002C371.4 16.6002 373.1 15.1002 374.3 14.2002C375.6 16.5002 375.6 19.2002 374.3 21.1002C372.4 23.8002 368.1 24.4002 367.4 23.4002Z" fill="#003553"/>
<path d="M365.659 12.9517C366.924 11.4901 365.614 8.28341 362.732 5.78927C359.851 3.29512 356.49 2.45803 355.224 3.91957C353.959 5.38111 355.269 8.58782 358.151 11.082C361.032 13.5761 364.393 14.4132 365.659 12.9517Z" fill="#FF2929"/>
<path d="M365.771 12.3992C367.318 11.6651 367.381 8.56227 365.913 5.46888C364.445 2.37549 362.001 0.462944 360.454 1.19708C358.907 1.93123 358.844 5.03406 360.312 8.12745C361.78 11.2208 364.224 13.1334 365.771 12.3992Z" fill="#D02323"/>
<path d="M365.4 13.0001C367.112 13.0001 368.5 10.2243 368.5 6.8001C368.5 3.37593 367.112 0.600098 365.4 0.600098C363.688 0.600098 362.3 3.37593 362.3 6.8001C362.3 10.2243 363.688 13.0001 365.4 13.0001Z" fill="#FF2929"/>
<path d="M418 67.1001H197V74.0001H418V67.1001Z" fill="#5BA6D0"/>
<path d="M337.4 31.4003V47.6003C337.4 48.2003 336.9 48.7003 336.3 48.7003H254.6V46.4003H258.1C258.7 46.4003 259.2 45.9003 259.2 45.3003V33.7003C259.2 33.1003 258.7 32.6003 258.1 32.6003H254.6V30.3003H336.3C336.9 30.3003 337.4 30.8003 337.4 31.4003Z" fill="#1E6C98"/>
<path d="M328.3 32.6001H259.2V46.4001H328.3V32.6001Z" fill="#C3D0D7"/>
<path d="M335.1 33.8001V45.1001C335.1 45.8001 334.5 46.3001 333.9 46.3001H258C258.6 46.3001 259.1 45.8001 259.1 45.2001V33.7001C259.1 33.1001 258.6 32.6001 258 32.6001H333.9C334.6 32.6001 335.1 33.1001 335.1 33.8001Z" fill="#C3D0D7"/>
<path d="M342 49.8002V66.0002C342 66.6002 341.5 67.1002 340.9 67.1002H259.2V64.8002H262.7C263.3 64.8002 263.8 64.3002 263.8 63.7002V52.1002C263.8 51.5002 263.3 51.0002 262.7 51.0002H259.2V48.7002H340.9C341.5 48.7002 342 49.2002 342 49.8002Z" fill="#003553"/>
<path d="M332.9 51H263.8V64.8H332.9V51Z" fill="#C3D0D7"/>
<path d="M339.7 52.2V63.5C339.7 64.2 339.1 64.7 338.5 64.7H262.6C263.2 64.7 263.7 64.2 263.7 63.6V52.1C263.7 51.5 263.2 51 262.6 51H338.5C339.2 51 339.7 51.5 339.7 52.2Z" fill="#C3D0D7"/>
<path d="M367.4 67.1001C373.751 67.1001 378.9 61.9514 378.9 55.6001C378.9 49.2488 373.751 44.1001 367.4 44.1001C361.049 44.1001 355.9 49.2488 355.9 55.6001C355.9 61.9514 361.049 67.1001 367.4 67.1001Z" fill="#1E6C98"/>
<path d="M367.4 34.9004H378.9L373.1 43.8004L367.4 52.8004L361.6 43.8004L355.8 34.9004H367.4Z" fill="#1E6C98"/>
<path d="M367.4 37.2001C373.751 37.2001 378.9 36.1704 378.9 34.9001C378.9 33.6298 373.751 32.6001 367.4 32.6001C361.049 32.6001 355.9 33.6298 355.9 34.9001C355.9 36.1704 361.049 37.2001 367.4 37.2001Z" fill="#124A69"/>
<path d="M201 107C199.5 109.8 197.2 111.3 196 112C179.3 122.1 170.9 127.2 166 125C160.6 122.6 158.4 116.2 158 115C157.6 113.8 156.1 108.8 158 103C158.2 102.4 158.4 101.9 158.7 101.3C159.3 99.8002 160.2 98.5002 161.2 97.2002C162.5 95.6002 164 94.1002 165.8 93.0002C166.9 92.3002 168.1 91.7002 169.4 91.2002C169.6 91.1002 169.9 91.0002 170.1 91.0002C171.3 90.6002 177.3 88.9002 181.1 92.0002C181.5 92.4002 181.9 92.7002 182.1 93.0002C189.8 88.8002 198.1 91.0002 201.1 96.0002C202.9 99.1002 202.8 103.6 201 107Z" fill="#1E6C98"/>
<path d="M172 116C171.1 116 171.1 113 169 112C167.4 111.2 165.1 111.8 164 113C162.2 114.9 162.5 119.3 166 123C165.7 132.3 165.3 141.7 165 151C165.4 151.6 168.5 155.6 174 156C179 156.4 182.4 153.6 183 153C183.8 148.5 184.7 144 185.5 139.5C186.8 139.2 187.8 138.8 188.5 138.5C194.3 135.6 195.4 127.2 197.5 110.5C197.7 109.3 197.9 106.9 196.5 105.5C195.6 104.6 193.9 104.1 192.5 104.5C190.6 105.1 190.6 106.8 188.5 107.5C187.7 107.7 187 107.7 185.5 107.5C182.3 107.2 182 106.5 180.5 106.5C177.2 106.6 174.8 110 174.5 110.5C172.6 113.2 172.9 116 172 116Z" fill="#AECFE1"/>
<path d="M170.5 133.5C170.3 133.8 172.7 136.9 176.5 138.5C179.9 140 183.4 139.9 183.5 139.5C183.6 139.2 181 138.8 177 137C172.7 135.1 170.7 133.3 170.5 133.5Z" fill="#1E6C98"/>
<path d="M166.5 90.8003C165.1 91.2003 163.3 92.2003 161.5 93.7003C159.8 95.1003 158.6 96.7003 157.9 98.0003C154.7 98.2003 151.4 96.9003 149.4 94.1003C146.2 89.8003 147 83.7003 151.3 80.5003C155.6 77.3003 161.6 78.3003 164.8 82.6003C166.7 85.0003 167.2 88.1003 166.5 90.8003Z" fill="#1E6C98"/>
<path d="M169.3 91.2001C168 91.6001 166.8 92.2001 165.7 93.0001C163.9 94.1001 162.4 95.6001 161.1 97.2001C160.1 98.5001 159.3 99.9001 158.6 101.3C158.2 101.2 157.9 101.1 157.7 100.8C157.2 100.2 157.3 99.2001 157.9 97.9001C158.6 96.6001 159.8 95.0001 161.5 93.6001C163.2 92.1001 165 91.1001 166.5 90.7001C167.8 90.5001 168.7 90.6001 169.3 91.2001C169.3 91.2001 169.2 91.2001 169.3 91.2001Z" fill="#FF2929"/>
<path d="M153 82.0004C155.9 79.3004 160.4 79.4004 163 82.0004C165.3 84.3004 165.8 88.0004 164 91.0004C164.1 90.5004 164.6 86.8004 162 84.0004C159.8 81.6004 156.2 80.8004 153 82.0004Z" fill="#124A69"/>
<path d="M190 93.0001C190.7 92.8001 194.2 91.9001 197.6 94.0001C198.2 94.4001 200.1 95.5001 201.1 97.7001C202.6 101.3 201.6 106.1 198.5 109.2C198.6 108.9 201.4 103.3 198.1 98.0001C195.3 93.8001 190.7 93.1001 190 93.0001Z" fill="#124A69"/>
<path d="M226.5 197.5C224.3 193.7 216.7 193.5 216.5 190.5C216.5 190.5 216.5 190.5 216.5 187.5C216.5 185.5 216.5 185.5 216.5 185.5C216.5 185.5 214.2 182.2 211.5 178.5C211.2 176.5 210.7 173.7 209.5 170.5C208.4 167.5 206.7 162.8 202.5 158.5C200.3 156.2 198.2 154.9 194.5 152.5C191.1 150.3 189.4 149.2 188 149C182.9 148.2 181.3 152.9 175 153C171.8 153 169.1 151.9 167 151C162.4 149.1 161.7 147.2 159 147C156 146.8 153.9 148.8 150.5 151.5C141.1 159.1 141.3 156.9 136.5 161.5C129.4 168.4 132.2 170.3 122 184C120.1 186.6 118.1 189 117 193C115.7 197.8 116.3 202.2 117 205C115.3 207.2 112.7 211.3 112 217C111.9 217.8 111.7 220 112 222C113.4 230.7 124.4 235.3 126 236C152.8 221.5 171 220.2 183 222C186.2 222.5 196.3 224.3 207.5 220.5C210.5 219.5 219.7 216.2 224.5 207.5C225.8 205.2 228.3 200.6 226.5 197.5ZM152.5 213.5C148.8 214.5 145.2 215.5 141.5 216.5C140.4 208.7 141.9 203.7 143.5 200.5C144.5 198.6 145.6 197.2 147.5 193.5C149.4 189.8 150.7 186.7 151.5 184.5C151.9 185.2 152.5 186.2 152.5 187.5C152.6 190.5 149.9 191.6 149.5 194.5C149.1 196.8 150.4 198.1 151.5 200.5C152.7 203.1 153.7 207.2 152.5 213.5Z" fill="#FFC852"/>
<path d="M192.5 163.5C192.8 163.3 196 167.4 198.5 172.5C200.3 176.2 201.4 178.4 201.5 181.5C201.7 185.5 200.1 185.8 199.5 191.5C199.1 194.7 198.8 198.1 200.5 201.5C202.1 204.7 205 206.9 205.5 206.5C206.1 206.1 203.5 202.9 202.5 197.5C201.8 193.8 202.3 191 202.5 189.5C203.8 177.3 192 163.8 192.5 163.5Z" fill="#FFAE00"/>
<path d="M218.5 201.5C217.5 201.5 214.1 201.8 211.5 204.5C208.6 207.5 207.8 212.2 209.5 216.5C209.6 214.7 210.2 211.2 212.5 207.5C214.5 204.3 217 202.4 218.5 201.5Z" fill="#FFAE00"/>
<path d="M175.5 218.5C177.5 217.2 179.7 216.1 182 215.3C184.3 214.5 186.7 213.9 189.1 213.6C191.5 213.3 193.9 213.1 196.4 213.3C198.8 213.4 201.2 213.8 203.5 214.5C201.1 214.6 198.7 214.7 196.4 214.9C194.1 215.1 191.7 215.3 189.4 215.6C187.1 215.9 184.8 216.3 182.5 216.8C180.1 217.3 177.9 217.9 175.5 218.5Z" fill="#FFAE00"/>
<path d="M115.5 207C117 204.8 119.3 203 121.9 202.1C123.2 201.7 124.6 201.4 126 201.5C127.4 201.6 128.8 201.9 130 202.5C128.6 202.5 127.3 202.5 126.1 202.6C124.8 202.8 123.6 203 122.4 203.4C121.2 203.8 120.1 204.3 118.9 204.9C117.8 205.6 116.7 206.3 115.5 207Z" fill="#FFAE00"/>
<path d="M149.5 226.5C155.9 225.5 165.6 224 177.5 222.5C186.5 221.4 193.5 220.6 194.5 220.5C215.7 218.3 252.5 231 272.5 238.5C250.5 248.8 228.5 259.2 206.5 269.5C187.5 255.2 168.5 240.8 149.5 226.5Z" fill="#003553"/>
<path d="M208.019 295.401C210.351 294.394 209.365 286.919 205.817 278.705C202.269 270.492 197.501 264.65 195.169 265.658C192.837 266.666 193.823 274.141 197.371 282.354C200.92 290.567 205.687 296.409 208.019 295.401Z" fill="#003553"/>
<path d="M295.5 254.5C293.2 257.4 289.5 261.4 284.5 265.5C274.5 273.7 264.9 276.9 252.5 281.5C241.1 285.8 225.9 290.8 207.5 295.5C207.6 292.8 207.5 288.6 206.5 284C205.7 280.7 204.5 277 202.4 273.6C201.6 272.2 200.6 270.9 199.5 269.6C198.7 268.7 198 267.9 197.2 267.1C196.6 266.6 196.1 266.1 195.5 265.6C197.3 264.7 199.1 264 200.7 263.3C205 261.5 208.7 260.4 211.5 259.6C218.1 257.8 221.2 257.7 224.5 254.6C227.8 251.5 227.1 249.2 230.5 245.6C232.9 243 235.5 241.8 241.5 239.6C254.1 235 262.4 233.5 278.5 230.6C279.4 230.4 281.2 230.1 283.5 230.6C287.2 231.4 289.5 233.6 290.5 234.6C297 240.8 295.6 253.9 295.5 254.5Z" fill="#1E6C98"/>
<path d="M227.5 253.5C228.5 253.2 230 252.6 231.5 251.5C233.6 249.9 234 248.4 235.5 246.5C238.7 242.6 243.4 241.3 243.5 241.5C243.6 241.7 241.3 242.7 238.5 245.5C236.8 247.2 236.4 248 234.5 249.5C233.3 250.4 232.2 251.1 231.5 251.5C230 252.4 228.6 253.1 227.5 253.5Z" fill="#003553"/>
<path d="M237.5 249.5C237.5 249.5 240.2 247.3 244.5 245.5C250.6 242.9 255 243.2 257.5 239.5C258 238.7 258.3 238 258.5 237.5C241.3 247.4 237.5 249.5 237.5 249.5Z" fill="#003553"/>
<path d="M206.5 284C191.7 283.7 176.9 283.4 162 283C161.3 281.2 160.4 279.2 159 277C157 273.8 154.8 271.6 153 270C154.3 269.7 155.7 269.3 157 269C157.3 268.8 157.7 268.7 158.2 268.5C159 268.2 159.9 268 161 268C164.3 268 165.7 269.9 169 271C171.8 271.9 174.1 271.6 178 271C182.8 270.3 184 269.1 189 268C191.3 267.5 193.4 267.2 195.4 267.1C196 267.1 196.6 267 197.2 267C198 267.8 198.8 268.6 199.5 269.5C203.4 274.1 205.4 279.3 206.5 284Z" fill="#AECFE1"/>
<path d="M176.9 239.6C186.9 240.1 197 240.5 207 241C208.7 237.3 210.3 233.7 212 230H167.1L176.9 239.6Z" fill="#7CA2B6"/>
<path d="M150 214C151.1 214.3 152.5 214.6 154.2 215C160.8 216.5 160.6 216.2 168.5 218C175.7 219.6 179.3 220.4 180.7 221C189.9 224.6 197.1 232.1 196 234C195 235.7 188.1 231.4 173.6 231C170.5 230.9 169 231.1 167.8 231.1L150 214Z" fill="#AECFE1"/>
<path d="M214 208C212.3 206.9 209.1 209.2 208 210C199.2 216.3 198.8 231.6 202 233C203.3 233.6 205.1 231.8 207 230C214.7 222.7 217.2 210 214 208Z" fill="#AECFE1"/>
<path d="M195.5 265.5L195.4 267.1C193.4 267.2 191.3 267.5 189 268C184 269.1 182.8 270.3 178 271C174.1 271.6 171.8 271.9 169 271C165.7 269.9 164.3 268 161 268C159.9 268 159 268.2 158.2 268.5C146.3 258.2 137.3 250 132 245C130.3 243.4 126.9 240.2 125 235C124.1 232.5 122.8 227.7 124 222C124.7 219 125.7 214.2 130 211C134.7 207.5 141.1 207.4 145.5 209.5C147.7 210.6 149.1 212 149.5 212.5C154.8 218.2 160.4 223.6 166.1 229C169.4 232.1 172.6 235.2 175.8 238.4C178.5 241 181 243.7 183.5 246.5C187.7 251.2 193.4 256.9 200.7 263.2C199.1 263.9 197.3 264.6 195.5 265.5Z" fill="#1E6C98"/>
<path d="M177.7 240.4C186.8 241.3 195.8 242.2 204.9 243H205C205.1 243 205.1 243 205.1 243C225.2 240.7 245.2 238.4 265.3 236.1C265.7 236.1 266.1 235.8 266.2 235.4C272.3 217.8 278.3 200.3 284.4 182.7C284.7 181.9 284.1 181.1 283.2 181.2C261.9 183 240.5 184.7 219.2 186.5C218.7 186.5 218.3 186.9 218.2 187.3C213.7 204.7 209.2 222.2 204.6 239.6C204.5 240.1 204 240.5 203.4 240.4C194.5 239.6 185.7 238.8 176.8 238C176.3 238.2 175.8 238.6 175.8 239C175.9 239.6 176.6 240.4 177.7 240.4Z" fill="#5BA6D0"/>
<path d="M75 368C73.7 373.1 57.4 373 48 373C38.2 373 23.2 372.9 22 368C20.7 362.9 34.2 352 48.5 352C62.7 352 76.3 362.9 75 368Z" fill="#1E6C98"/>
<path d="M50 73H47V365H50V73Z" fill="#1E6C98"/>
<path d="M123.3 61.2V61.7C123.3 82.3 106.6 99 86 99H82.2C77.2 99 72.4 98 68.1 96.2C54.6 90.7 45 77.3 45 61.8V61.3C45 40.7 61.7 24 82.2 24H86C101.8 24 115.4 33.9 120.8 47.8C122.4 52 123.3 56.5 123.3 61.2Z" fill="#1E6C98"/>
<path d="M123.3 61.2V61.7C123.3 82.3 106.6 99 86 99H82.2C77.2 99 72.4 98 68.1 96.2C64.9 90.9 63 84.7 63 78C63 68.3 66.9 59.6 73.2 53.2C79.6 46.9 88.3 43 98 43H103C109.5 43 115.6 44.8 120.8 47.8C122.4 52 123.3 56.5 123.3 61.2Z" fill="#5BA6D0"/>
</g>
<defs>
<clipPath id="clip0_1104_18561">
<rect width="465" height="375" fill="white"/>
</clipPath>
</defs>
</svg>
