<svg width="631" height="440" fill="none" xmlns="http://www.w3.org/2000/svg"><path opacity=".5" d="M419.109 314.48c0-20.751 16.823-37.574 37.574-37.574h62.419c27.799 0 52.594 17.482 61.933 43.666l35.029 98.216H419.109V314.48ZM381.773 58.661c0-15.564-12.616-28.18-28.18-28.18H227.581c-65.323 0-122.081 44.898-137.118 108.468L24.269 418.788h357.504V58.661Z" fill="#EAF5FF"/><g clip-path="url(#a)"><path d="M494.666 155.554v61.467h-65.291v-76.396h50.362v14.929h14.929Z" fill="#fff"/><path d="M494.665 155.554h-14.929v-14.929l14.929 14.929Z" fill="#171255"/><path d="M470.005 157.661h-34.913v2.178h34.913v-2.178Zm-9.472 9.459h-25.441v2.178h25.441v-2.178Zm28.403 0h-25.442v2.178h25.442v-2.178Z" fill="#201867"/><path d="M464.614 179.516c4.57 0 7.079 3.019 5.848 8.784-.734 3.208-1.042 5.221 1.669 5.221h.308v2.782h-.308c-2.711 0-2.403 1.977-1.669 5.186 1.243 5.801-1.278 8.784-5.848 8.784h-.237v-2.782h.237c2.592 0 3.362-1.894 2.557-6.275-.58-3.054-.77-5.801 1.823-6.345-2.593-.462-2.403-3.209-1.823-6.31.817-4.333.035-6.228-2.557-6.228h-.237v-2.829h.237v.012Zm-20.931 2.817c-2.593 0-3.362 1.894-2.557 6.227.58 3.09.769 5.849-1.824 6.311 2.593.544 2.404 3.291 1.824 6.345-.817 4.369-.036 6.275 2.557 6.275h.237v2.782h-.237c-4.534 0-7.08-2.983-5.849-8.784.77-3.209 1.042-5.186-1.669-5.186h-.308v-2.782h.308c2.711 0 2.439-2.013 1.669-5.221-1.243-5.765 1.315-8.784 5.849-8.784h.237v2.829h-.237v-.012Zm12.883-1.894c0 1.196-1.006 2.167-2.202 2.167s-2.202-.971-2.202-2.167c0-1.195 1.006-2.202 2.202-2.202s2.202.971 2.202 2.202Zm-3.907 26.863v-19.736h3.327v19.736h-3.327Z" fill="#171255"/><path d="M516.598 298.209h-51.473v38.689h51.473v-38.689Z" fill="#fff"/><path d="M516.598 298.209h-51.473v24.992h51.473v-24.992Z" fill="#00C6FF"/><path d="M465.125 323.207v-24.998h51.473l-51.473 24.998Z" fill="#5740F2" style="mix-blend-mode:multiply" opacity=".25"/><path d="M491.159 325.975h-21.964v1.098h21.964v-1.098Zm-5.953 5.953h-16.011v1.098h16.011v-1.098Zm17.871 0h-16.011v1.098h16.011v-1.098Z" fill="#201867"/><path d="M487.507 304.676c1.785 0 2.767 1.181 2.28 3.433-.289 1.256-.405 2.039.652 2.039h.124v1.091h-.124c-1.057 0-.941.769-.652 2.026.48 2.266-.502 3.433-2.28 3.433h-.089v-1.092h.089c1.01 0 1.318-.741.996-2.451-.227-1.195-.302-2.266.707-2.479-1.016-.178-.941-1.256-.707-2.464.316-1.696.014-2.431-.996-2.431h-.089v-1.105h.089Zm-14.954 1.105c-1.016 0-1.318.742-.995 2.431.226 1.208.302 2.279-.707 2.464 1.009.213.933 1.284.707 2.479-.316 1.71-.014 2.451.995 2.451h.09v1.092h-.09c-1.771 0-2.767-1.167-2.279-3.433.302-1.257.405-2.026-.652-2.026h-.124v-1.091h.124c1.057 0 .954-.783.652-2.039-.481-2.252.515-3.433 2.279-3.433h.09v1.105h-.09Zm5.734 10.766 3.873-12.324h1.345l-3.838 12.324h-1.38Z" fill="#171255"/><path d="M442.452 61.614h-68.891l8.273-22.733h68.891l-8.273 22.733Z" fill="#F2254D"/><path d="m373.561 61.614 8.273-22.733h68.891l-77.164 22.733Z" fill="#FFB300" opacity=".25"/><path d="M442.438 61.613h-68.892l-4.009-11.919h68.891l4.01 11.92Z" fill="#171255"/><path d="M430.128 72.434h-68.892l8.28-22.74h68.892l-8.28 22.74Z" fill="#F2E100"/><path d="m361.236 72.434 8.28-22.74h68.892l-77.172 22.74Z" fill="#D619E6" opacity=".2"/><path d="M427.218 54.755h-53.409v1.806h53.409v-1.806Zm-34.344 8.204h-22.06v1.806h22.06v-1.806Z" fill="#201867"/><path d="M419.817 62.959h-24.374v1.806h24.374v-1.806Z" fill="#fff"/><path d="M500.661 43.267h-11.384V31.884h11.384v11.383Zm-9.798-1.586h8.212V33.47h-8.212v8.211Z" fill="#000"/><path d="M419.088 282.925c4.49-2.039 22.479-11.225 22.479-27.957v-16.341c-8.988-.398-16.526-2.815-22.479-7.202-5.953 4.387-13.484 6.797-22.479 7.202v16.348c0 16.725 17.996 25.918 22.479 27.95Z" fill="#171255"/><path d="M419.088 279.341c3.866-1.75 19.348-9.66 19.348-24.071v-14.068c-7.738-.344-14.226-2.424-19.348-6.2-5.122 3.776-11.61 5.856-19.348 6.2v14.075c0 14.404 15.489 22.314 19.348 24.064Z" fill="#F46D7E"/><path d="M427.039 253.533h-15.338v14.199h15.338v-14.199Z" fill="#171255"/><path d="M413.994 253.533v-3.529a5.375 5.375 0 1 1 10.752 0v3.556" stroke="#fff" stroke-width="1.423" stroke-miterlimit="10"/><path d="M420.92 260.887c0-.859-.694-1.559-1.559-1.559s-1.558.694-1.558 1.559c0 .487.233.92.583 1.201v2.774h1.95v-2.774c.35-.288.584-.714.584-1.201Z" fill="#fff"/><path d="M419.088 235.002c-5.122 3.776-11.61 5.857-19.348 6.2v14.075c0 5.726 2.451 10.422 5.644 14.116l31.411-28.301c-7.017-.549-12.949-2.595-17.707-6.097v.007Z" fill="#F46D7E" style="mix-blend-mode:screen" opacity=".35"/><g opacity=".6"><path fill-rule="evenodd" clip-rule="evenodd" d="m555.111 149.857-17.433-10.084V119.69l17.433 9.999v20.168Z" fill="url(#b)"/><path fill-rule="evenodd" clip-rule="evenodd" d="M572.426 119.919v19.966l-17.313 9.968-.107-19.953 17.42-9.986v.005Z" fill="#00C366"/><path fill-rule="evenodd" clip-rule="evenodd" d="m555.005 109.821 17.433 10.084-17.433 9.999-17.349-9.999 17.349-10.084Z" fill="#171255"/><path d="M544.112 123.627s-9.042 8.029-1.188 11.147c3.472 1.381 6.233 2.06 6.733 11.925" stroke="#fff" stroke-width="1.423" stroke-miterlimit="10"/><path d="M546.396 144.813c.336-11.415 8.588-8.515 8.588-8.515s5.33 1.036 6.795 9.623" stroke="#171255" stroke-width="1.423" stroke-miterlimit="10"/><path d="M537.656 123.627s3.753 7.18 9.727 1.885" stroke="#fff" stroke-width="1.423" stroke-miterlimit="10"/><path d="M572.439 125.539s-7.082 9.262-8.23-.902" stroke="#171255" stroke-width="1.423" stroke-miterlimit="10"/><path d="M566.184 143.482s-4.37-7.998 6.241-10.25" stroke="#fff" stroke-width="1.423" stroke-miterlimit="10"/></g><path d="M361.234 117.289H238.021v77.436a5.64 5.64 0 0 0 5.637 5.64h111.94a5.636 5.636 0 0 0 5.636-5.637v-77.439Z" fill="#171255"/><path d="M240.824 198.498v-81.209h120.413l-120.413 81.209Z" fill="#5740F2" style="mix-blend-mode:multiply" opacity=".5"/><path d="M356.01 105.574H243.595a5.636 5.636 0 0 0-5.636 5.636v6.4h123.687v-6.4a5.636 5.636 0 0 0-5.636-5.636Z" fill="#8BD3E6"/><path d="M262.801 185.197c.879 0 1.359.577 1.119 1.689-.144.618-.199 1.003.323 1.003h.062v.535h-.062c-.522 0-.46.378-.323.996.24 1.112-.247 1.689-1.119 1.689h-.041v-.536h.041c.501 0 .645-.364.487-1.201-.109-.584-.151-1.113.351-1.222-.502-.09-.46-.618-.351-1.209.158-.831.007-1.194-.487-1.194h-.041v-.543h.041v-.007Z" fill="#fff"/><path d="M267.249 134.699h-15.702v3.186h15.702v-3.186Z" fill="#00C366"/><path d="M275.618 134.699h-5.507v3.186h5.507v-3.186Z" fill="#171255"/><path d="M291.154 143.604c.879 0 1.36.577 1.12 1.689-.145.618-.2 1.003.322 1.003h.062v.535h-.062c-.522 0-.46.378-.322.996.24 1.112-.248 1.689-1.12 1.689h-.041v-.536h.041c.502 0 .646-.363.488-1.201-.11-.584-.151-1.112.35-1.222-.501-.089-.46-.618-.35-1.209.158-.83.007-1.194-.488-1.194h-.041v-.543h.041v-.007Zm-12.633-8.472c0-.254.193-.446.433-.446s.446.192.446.446c0 .24-.199.432-.446.432a.427.427 0 0 1-.433-.432Zm.872 3.103c0 .577-.254 1.078-.837 1.415v-.289c.261-.192.398-.453.439-.755a.429.429 0 0 1-.432-.426c0-.24.178-.439.425-.439.261 0 .405.206.405.494Z" fill="#fff"/><path d="M272.234 145.094h-8.582v3.185h8.582v-3.185Zm15.854 0h-12.99v3.185h12.99v-3.185Z" fill="#F2254D"/><path d="M256.634 145.094h-3.193v3.192h3.193v-3.192Zm2.445.502a1.596 1.596 0 1 0 2.326 2.186 1.596 1.596 0 0 0-2.326-2.186Z" fill="#00C6FF"/><path d="M318.157 165.891h-3.192v3.192h3.192v-3.192Z" fill="#00C366"/><path d="m320.566 168.549.205.193c.586.55 1.507.521 2.058-.064l.193-.206a1.456 1.456 0 0 0-.064-2.057l-.206-.193a1.455 1.455 0 0 0-2.057.064l-.193.205a1.456 1.456 0 0 0 .064 2.058Z" fill="#171255"/><path d="M252.308 123.35c-.501 0-.645.364-.487 1.195.11.597.151 1.119-.35 1.208.501.103.46.632.35 1.222-.158.838-.007 1.202.487 1.202h.048v.535h-.048c-.872 0-1.359-.57-1.119-1.689.151-.618.199-.995-.323-.995h-.061v-.536h.061c.522 0 .467-.384.323-1.002-.24-1.106.254-1.689 1.119-1.689h.048v.542h-.048v.007Zm6.496 32.667v-.611h3.564v.611h-3.564Zm0 1.779v-.605h3.564v.605h-3.564Zm9.104-3.255c-.501 0-.645.364-.488 1.195.11.597.151 1.119-.35 1.208.501.103.46.632.35 1.223-.157.837-.006 1.201.488 1.201h.048v.536h-.048c-.872 0-1.36-.57-1.119-1.689.151-.618.199-.996-.323-.996h-.062v-.535h.062c.522 0 .467-.385.323-1.003-.241-1.105.254-1.689 1.119-1.689h.048v.543h-.048v.006Zm12.303 20.255c.879 0 1.36.577 1.119 1.689-.144.618-.199 1.002.323 1.002h.062v.536h-.062c-.522 0-.46.377-.323.995.241 1.113-.247 1.689-1.119 1.689h-.041v-.535h.041c.501 0 .645-.364.488-1.202-.11-.583-.151-1.112.35-1.222-.501-.089-.46-.618-.35-1.208.157-.831.006-1.195-.488-1.195h-.041v-.542h.041v-.007Zm26.185-8.473c0-.254.193-.446.433-.446s.446.192.446.446a.438.438 0 0 1-.446.433.427.427 0 0 1-.433-.433Zm.872 3.104c0 .576-.254 1.078-.837 1.414v-.288c.261-.193.398-.454.439-.756a.429.429 0 0 1-.432-.425c0-.241.178-.44.425-.44.261 0 .405.206.405.501v-.006Z" fill="#fff"/><path d="M288.085 165.891h-7.47v3.185h7.47v-3.185Z" fill="#F2E100"/><path d="M304.693 165.891H289.85v3.185h14.843v-3.185Z" fill="#FF6943"/><path d="M264.27 168.609h-4.504l2.252-2.252 2.252 2.252Zm6.178-2.718h-3.192v3.192h3.192v-3.192Z" fill="#00C366"/><path d="M257.101 164.936v4.833h.735v.536h-1.373V164.4h1.373v.536h-.735Zm15.055 0v-.536h1.373v5.905h-1.373v-.536h.735v-4.833h-.735Z" fill="#fff"/><path d="M305.169 145.094h-7.47v3.185h7.47v-3.185Zm16.608 0h-14.843v3.185h14.843v-3.185Z" fill="#00C366"/><path d="M275.405 176.292h-5.507v3.186h5.507v-3.186Z" fill="#FF6943"/><path d="M215.62 77.151h-58.806v55.073h58.806V77.151Z" fill="#fff"/><path d="M210.94 81.14h-49.565v21.757h49.565V81.141Z" fill="#171255"/><path d="M184.009 105.619h-22.632v1.396h22.632v-1.396Zm-6.139 6.14h-16.493v1.396h16.493v-1.396Zm18.408 0h-16.493v1.396h16.493v-1.396Z" fill="#201867"/><path d="m160.974 104.062-.418-.475 15.869-18.008 15.832 17.975-.41.475-15.422-17.5-15.451 17.533Z" fill="#fff"/><path d="m204.287 105.685-15.421-17.5-5.473 6.21-.411-.474 5.884-6.677 15.832 17.967-.411.474Zm-1.443-16.368c1.171 0 2.121-1.077 2.121-2.406 0-1.329-.95-2.406-2.121-2.406s-2.12 1.077-2.12 2.406c0 1.329.949 2.406 2.12 2.406Zm363.404 140.577H535.51v10.216h30.738v-10.216Z" fill="#fff"/><path d="M267.012 365.566H108.809v52.735h158.203v-52.735Z" fill="#5740F2" style="mix-blend-mode:multiply" opacity=".5"/><path d="M517.193 78.022h30.739V67.806h-30.739v10.216Z" fill="#FF5A00"/><path d="M500.659 74.658h30.038V64.36h-30.038v10.3Z" stroke="#fff" stroke-width="1.423" stroke-miterlimit="10"/><path d="M122.807 146.123H92.068v10.216h30.739v-10.216Z" fill="#FF5A00"/><path d="M139.341 142.684h-30.038v10.298h30.038v-10.298Z" stroke="#fff" stroke-width="1.423" stroke-miterlimit="10"/><path d="M253.023 17.412h27.155" stroke="#201867" stroke-width="1.423" stroke-miterlimit="10"/><path d="M246.392 30.635h-14.04" stroke="#fff" stroke-width="1.423" stroke-miterlimit="10"/><path d="M473.334 86.68h27.154" stroke="#201867" stroke-width="1.423" stroke-miterlimit="10"/><path d="M522.205 86.68h-14.041" stroke="#fff" stroke-width="1.423" stroke-miterlimit="10"/><path d="M173.086 122.327h27.154" stroke="#201867" stroke-width="1.423" stroke-miterlimit="10"/><path d="M221.957 122.327h-14.041" stroke="#fff" stroke-width="1.423" stroke-miterlimit="10"/><path d="M487.414 346.709h27.154" stroke="#201867" stroke-width="1.423" stroke-miterlimit="10"/><path d="M536.285 346.709h-14.041" stroke="#fff" stroke-width="1.423" stroke-miterlimit="10"/><path d="M337.008 215.633h27.154" stroke="#00C6FF" stroke-width="1.423" stroke-miterlimit="10"/><path d="M406.476 215.633h-34.638" stroke="#fff" stroke-width="1.423" stroke-miterlimit="10"/><path d="M323.514 226.186h27.154" stroke="#00C6FF" stroke-width="1.423" stroke-miterlimit="10"/><path d="M386.116 226.186h-27.772" stroke="#fff" stroke-width="1.423" stroke-miterlimit="10"/><path d="M283.828 9.944h-93.344v10.268h93.344V9.944Z" fill="url(#c)" style="mix-blend-mode:multiply" opacity=".5"/><path d="M471.803 293.182h-30.739v10.216h30.739v-10.216Z" fill="#5740F2" style="mix-blend-mode:multiply" opacity=".5"/><path d="M148.424 336.492h-10.299v10.217h10.299v-10.217Z" fill="#fff"/><path d="M141.556 343.357h-17.439v10.217h17.439v-10.217Z" fill="#00C6FF"/><path d="M443.338 108.807a2.76 2.76 0 1 0 0-5.52 2.76 2.76 0 0 0 0 5.52ZM347.95 263.769a3.296 3.296 0 1 0-.001-6.591 3.296 3.296 0 0 0 .001 6.591Z" fill="#171255"/><path d="M127.812 65.21a3.261 3.261 0 1 0 0-6.522 3.261 3.261 0 0 0 0 6.522Z" stroke="#171255" stroke-width="1.423" stroke-miterlimit="10"/><path d="m235.603 48.713-4.947 4.947 4.947 4.947 4.947-4.947-4.947-4.947Zm296.957 337.24-4.947 4.947 4.947 4.947 4.947-4.947-4.947-4.947Z" fill="#00C366"/><path d="M278.18 365.48h-77.81l-55.771-73.828" stroke="#171255" stroke-width="2.135" stroke-miterlimit="10"/><path d="M249.934 291.357c-4.415 4.991-9.935 6.337-12.324 3.007l-14.83-20.707c-2.39-3.337-.742-10.086 3.673-15.078 4.415-4.991 9.935-6.337 12.324-3.007l14.83 20.708c2.389 3.336.742 10.085-3.673 15.077Z" fill="#FF8E92"/><path d="m254.807 283.007-17.893-28.04-22.959-4.092s-11.692 14.089-22.767 0l-15.379 6.303-13.952 18.448 29.276 57.838 63.681-50.45-.007-.007Z" fill="#fff"/><path d="M228.241 315.998a1.806 1.806 0 0 0-.494.137v-.055a3.525 3.525 0 0 1 .879-2.155c.185-.206-.124-.515-.302-.302a3.998 3.998 0 0 0-1.003 2.368 4.323 4.323 0 0 0 0 .426 1.85 1.85 0 0 0-.171.172c-.612.714-.831 1.695-.749 2.615h.426a3.346 3.346 0 0 1 .419-2.011c.055-.09.109-.179.171-.254.144.467.44.858.968.947.378.062.783-.055.982-.398.186-.323.137-.748-.075-1.051-.241-.336-.659-.487-1.065-.446l.014.007Zm.81 1.14c-.055.254-.281.357-.515.343-.466-.034-.679-.446-.755-.872.041-.027.089-.062.137-.082.268-.138.612-.151.872.007.2.123.309.391.261.604Zm13.844-2.637a2.87 2.87 0 0 0-.425 0 1.994 1.994 0 0 0-.172-.172c-.783-.673-1.881-.879-2.877-.735-.117.014-.178.165-.151.268.034.124.151.165.268.151a3.337 3.337 0 0 1 2.156.412c.089.055.171.11.254.179-.467.137-.858.439-.948.968-.061.377.055.782.399.982.322.192.748.144 1.05-.069.336-.24.494-.652.453-1.057a1.735 1.735 0 0 0-.137-.495h.055a3.527 3.527 0 0 1 2.149.893c.206.185.515-.117.309-.302a4.037 4.037 0 0 0-2.362-1.016l-.021-.007Zm-.549 1.462a.612.612 0 0 1-.604.261c-.254-.055-.357-.282-.337-.522.035-.467.447-.673.872-.748l.083.137c.13.268.151.611-.014.872Zm-7.535-18.388c.117-.007.193-.151.172-.254-.027-.123-.137-.178-.254-.171a3.36 3.36 0 0 1-2.121-.556c-.076-.055-.151-.117-.227-.179l-.021-.014h.021c.467-.116.872-.384.996-.899a1.015 1.015 0 0 0-.021-.591.84.84 0 0 0-.309-.418.946.946 0 0 0-.666-.138 1.071 1.071 0 0 0-.384.138 1.06 1.06 0 0 0-.392.425 1.218 1.218 0 0 0-.13.604c0 .172.041.344.103.502h-.055a3.55 3.55 0 0 1-2.081-1.037.2.2 0 0 0-.109-.062h-.097c-.144.034-.254.206-.123.343a3.963 3.963 0 0 0 2.286 1.175c.138.02.282.027.426.027.048.062.103.124.165.185.123.117.254.227.391.323.7.488 1.593.673 2.43.611v-.014Zm-2.828-1.702c-.117-.275-.103-.625.075-.865a.612.612 0 0 1 .33-.213.529.529 0 0 1 .295 0c.082.02.144.068.199.123.096.11.131.261.103.419-.048.343-.295.529-.59.625-.103.034-.22.055-.33.062-.027-.048-.055-.096-.075-.144l-.007-.007Zm-21.962-10.916a1.796 1.796 0 0 0-.494.137v-.055a3.53 3.53 0 0 1 .878-2.155c.186-.206-.123-.515-.302-.303-.583.66-.94 1.49-1.002 2.369a4.323 4.323 0 0 0 0 .426c-.062.055-.117.11-.172.172-.666.782-.865 1.881-.721 2.876.014.117.165.179.268.151.124-.034.165-.151.151-.267-.11-.735.021-1.518.398-2.156.055-.09.11-.179.172-.254.144.467.439.858.968.947.378.062.783-.055.982-.398.185-.323.137-.748-.076-1.051-.24-.336-.659-.487-1.064-.446l.014.007Zm.81 1.14c-.055.254-.281.357-.515.343-.467-.034-.68-.446-.755-.872.041-.027.089-.062.137-.082.268-.138.611-.151.872.007a.599.599 0 0 1 .261.604Zm9.954-5.677c-.117.013-.179.164-.151.267.034.124.151.172.267.151a3.38 3.38 0 0 1 2.156.412c.09.055.172.11.254.179-.467.137-.858.439-.947.968-.062.377.055.783.398.982a.98.98 0 0 0 .906.013.792.792 0 0 0 .145-.082c.336-.24.494-.652.453-1.057a1.77 1.77 0 0 0-.138-.495h.055c.79.042 1.559.364 2.149.893.206.185.515-.117.309-.302a4.034 4.034 0 0 0-2.362-1.016 2.87 2.87 0 0 0-.425 0 1.994 1.994 0 0 0-.172-.172c-.783-.673-1.881-.879-2.877-.735l-.02-.006Zm2.876 1.386c.021.035.049.076.069.117.131.268.151.611-.014.872-.013.028-.034.048-.055.069-.137.151-.37.233-.549.192-.254-.055-.357-.282-.336-.522.034-.467.446-.673.872-.748l.013.027v-.007Zm-26.15 4.868c.021-.131-.069-.213-.185-.241-.714-.192-1.38-.617-1.82-1.222a2.078 2.078 0 0 1-.164-.261c.48.055.961-.068 1.249-.514.206-.323.254-.742.021-1.058-.22-.302-.632-.425-.989-.35-.405.082-.707.412-.831.796a1.596 1.596 0 0 0-.068.509c-.014-.007-.035-.014-.048-.021a3.51 3.51 0 0 1-1.628-1.662c-.116-.254-.521-.096-.398.158a3.994 3.994 0 0 0 1.778 1.861c.124.062.254.117.392.165.027.075.055.151.089.226.453.92 1.387 1.545 2.355 1.806.11.027.227-.075.24-.185l.007-.007Zm-2.362-2.348c-.02-.296.103-.625.35-.797a.621.621 0 0 1 .66 0c.212.144.219.398.109.611-.219.419-.672.447-1.098.344-.007-.055-.021-.103-.021-.158Zm22.156-16.389c.13 0 .199-.11.206-.226.062-.742.357-1.47.872-2.012a2.19 2.19 0 0 1 .226-.213c.035.488.241.934.735 1.14.35.144.776.117 1.044-.172.254-.274.302-.7.164-1.036-.157-.385-.528-.625-.933-.673a1.569 1.569 0 0 0-.508.027c0-.02.006-.034.013-.055a3.485 3.485 0 0 1 1.339-1.902c.227-.158 0-.528-.226-.364a3.982 3.982 0 0 0-1.504 2.088 2.6 2.6 0 0 0-.089.418c-.069.042-.138.083-.206.131-.824.618-1.264 1.641-1.346 2.643-.007.117.117.213.227.206h-.014Zm1.73-2.698c.048-.021.103-.034.151-.048.288-.069.632-.014.845.206a.614.614 0 0 1 .123.645c-.103.234-.35.289-.583.22-.454-.137-.563-.584-.543-1.016l.007-.007Zm-27.237 50.759a1.796 1.796 0 0 0-.494.137v-.055a3.525 3.525 0 0 1 .879-2.155c.185-.206-.124-.515-.303-.302a4.003 4.003 0 0 0-1.002 2.368 4.323 4.323 0 0 0 0 .426c-.062.055-.117.11-.172.172-.611.714-.83 1.695-.748 2.615h.426a3.346 3.346 0 0 1 .419-2.011c.054-.09.109-.179.171-.254.144.467.44.858.968.947.378.062.783-.055.982-.398.185-.323.137-.748-.075-1.051-.241-.336-.66-.487-1.065-.446l.014.007Zm.81 1.14c-.055.254-.281.357-.515.343-.467-.034-.679-.446-.755-.872.041-.027.089-.062.137-.082.268-.138.611-.151.872.007a.599.599 0 0 1 .261.604Zm26.054 1.268c-.714-.192-1.38-.618-1.82-1.222a2.16 2.16 0 0 1-.165-.261c.481.055.962-.069 1.25-.515.206-.323.254-.741.021-1.057-.22-.302-.632-.426-.989-.35-.405.082-.707.412-.831.796a1.593 1.593 0 0 0-.068.508c-.014-.007-.035-.014-.049-.02a3.513 3.513 0 0 1-1.627-1.662c-.116-.254-.522-.096-.398.158a3.999 3.999 0 0 0 1.778 1.861c.124.061.254.116.392.164.027.076.055.151.089.227.453.92 1.387 1.545 2.355 1.806.11.027.226-.076.24-.186.021-.13-.068-.213-.185-.24l.007-.007Zm-2.177-2.108c-.02-.295.103-.624.35-.796a.617.617 0 0 1 .66 0c.212.144.219.398.109.611-.219.419-.672.446-1.098.343-.007-.055-.021-.103-.021-.158Zm4.918-9.372c-.137-.006-.281-.013-.426 0a2.122 2.122 0 0 0-.171-.171c-.783-.673-1.881-.879-2.877-.735-.117.014-.179.165-.151.268.034.123.151.165.268.151.734-.103 1.51.027 2.156.412.089.055.171.11.254.178-.467.138-.859.44-.948.968-.062.378.055.783.398.982.323.193.749.144 1.051-.068.336-.241.494-.653.453-1.058a1.806 1.806 0 0 0-.137-.494h.055a3.527 3.527 0 0 1 2.149.893c.206.185.515-.117.309-.303a4.05 4.05 0 0 0-2.362-1.016l-.021-.007Zm-.549 1.463a.613.613 0 0 1-.604.261c-.254-.055-.357-.282-.337-.522.035-.467.446-.673.872-.748l.083.137c.13.268.151.611-.014.872Zm-2.807-12.611c-.11-.062-.227-.014-.295.082a3.301 3.301 0 0 1-1.806 1.243 1.524 1.524 0 0 1-.302.055c.226-.433.295-.92-.021-1.353-.22-.309-.59-.508-.982-.412-.357.097-.624.433-.686.797-.069.405.117.81.439 1.064.138.11.289.192.446.247a.163.163 0 0 1-.041.035 3.506 3.506 0 0 1-2.142.906c-.274.014-.274.446 0 .432a4.011 4.011 0 0 0 2.383-.968c.103-.089.206-.192.302-.302h.247c1.023-.082 1.943-.721 2.54-1.531.069-.096.014-.24-.082-.295Zm-2.898 1.373a.65.65 0 0 1-.157-.041c-.282-.089-.543-.323-.612-.618a.607.607 0 0 1 .241-.611c.213-.144.453-.055.611.124.309.357.165.789-.083 1.146Zm-27.388-1.956c.116-.007.192-.152.171-.255-.027-.123-.137-.178-.254-.171a3.353 3.353 0 0 1-2.121-.556c-.076-.055-.151-.117-.227-.179l-.02-.014h.02c.467-.116.872-.384.996-.899a1.011 1.011 0 0 0-.021-.59.842.842 0 0 0-.309-.419.946.946 0 0 0-.666-.138 1.071 1.071 0 0 0-.384.138 1.067 1.067 0 0 0-.392.425 1.22 1.22 0 0 0-.13.605c0 .171.041.343.103.501h-.055a3.545 3.545 0 0 1-2.08-1.037.205.205 0 0 0-.11-.062h-.096c-.145.035-.254.206-.124.344a3.967 3.967 0 0 0 2.286 1.174c.138.02.282.027.426.027.048.062.103.124.165.185.123.117.254.227.391.323.701.488 1.593.673 2.431.611v-.013Zm-2.829-1.703c-.117-.275-.103-.625.076-.865a.61.61 0 0 1 .624-.213c.083.02.144.069.199.123.097.11.131.261.103.419-.048.344-.295.529-.59.625-.103.034-.22.055-.33.062-.027-.048-.055-.096-.075-.144l-.007-.007Zm17.974 10.936a1.57 1.57 0 0 0-.508.028c0-.021.007-.035.013-.055a3.485 3.485 0 0 1 1.339-1.902c.227-.158 0-.529-.226-.364a3.98 3.98 0 0 0-1.504 2.087 2.635 2.635 0 0 0-.089.419 2.944 2.944 0 0 0-.206.131c-.824.617-1.263 1.64-1.346 2.643-.007.117.117.213.227.206.13 0 .199-.11.206-.227.062-.741.357-1.469.872-2.011.068-.076.144-.145.226-.213.035.487.241.933.735 1.139.35.145.776.117 1.044-.171.254-.275.302-.7.164-1.037-.158-.384-.528-.625-.933-.673h-.014Zm.535 1.291c-.103.233-.35.288-.583.22-.453-.138-.563-.584-.543-1.016.048-.021.103-.035.151-.048.289-.069.632-.014.845.205a.612.612 0 0 1 .123.646l.007-.007Zm-27.992-22.039c-.172.02-.337.068-.495.137v-.055a3.536 3.536 0 0 1 .879-2.156c.186-.206-.123-.515-.302-.302a4 4 0 0 0-1.002 2.369 4.323 4.323 0 0 0 0 .426 1.85 1.85 0 0 0-.172.171c-.666.783-.865 1.881-.721 2.877.014.117.165.178.268.151.123-.034.165-.151.151-.268-.11-.734.021-1.517.398-2.156.055-.089.11-.178.172-.254.144.467.439.859.968.948.378.062.783-.055.982-.398.185-.323.137-.749-.076-1.051-.24-.336-.659-.487-1.064-.446l.014.007Zm.81 1.139c-.055.254-.282.357-.515.344-.467-.035-.68-.447-.755-.872.041-.028.089-.062.137-.083.268-.137.611-.151.872.007a.6.6 0 0 1 .261.604Zm11.844-8.403c-.453-.584-.728-1.332-.714-2.074 0-.103.014-.206.027-.309.35.337.804.529 1.312.344.357-.131.652-.433.659-.831a.99.99 0 0 0-.44-.796.592.592 0 0 0-.144-.083c-.371-.178-.81-.103-1.146.137a1.485 1.485 0 0 0-.357.364c-.007-.013-.021-.034-.028-.048a3.529 3.529 0 0 1-.295-2.307c.055-.267-.357-.384-.419-.116a3.952 3.952 0 0 0 .295 2.554c.062.123.131.247.213.37a1.557 1.557 0 0 0-.062.234c-.192 1.009.172 2.067.79 2.863.069.089.227.075.302 0 .089-.089.076-.213 0-.302h.007Zm-.529-2.884a1.01 1.01 0 0 1 .069-.116c.165-.248.46-.433.762-.419.027 0 .055 0 .082.013a.61.61 0 0 1 .44.385c.082.247-.069.453-.282.549-.425.199-.81-.055-1.084-.384l.013-.028Zm-21.955 13.142c.02-.131-.069-.213-.186-.241-.714-.192-1.38-.617-1.819-1.222a1.976 1.976 0 0 1-.165-.261c.481.055.961-.068 1.25-.514.206-.323.254-.742.02-1.058-.22-.302-.632-.425-.989-.35-.405.082-.707.412-.83.796a1.597 1.597 0 0 0-.069.509l-.048-.021a3.504 3.504 0 0 1-1.627-1.662c-.117-.254-.522-.096-.398.158.37.797.995 1.456 1.778 1.861.123.062.254.117.391.165.028.075.055.151.089.226.454.92 1.387 1.545 2.355 1.806.11.027.227-.075.241-.185l.007-.007Zm-2.362-2.348c-.021-.296.103-.625.35-.797a.62.62 0 0 1 .659 0c.213.144.22.398.11.611-.22.419-.673.447-1.099.344-.007-.055-.02-.103-.02-.158Zm85.239 2.801a1.803 1.803 0 0 0-.495.137v-.055a3.53 3.53 0 0 1 .879-2.155c.185-.206-.124-.515-.302-.303a3.996 3.996 0 0 0-1.002 2.369 4.323 4.323 0 0 0 0 .426c-.062.055-.117.11-.172.171-.666.783-.865 1.882-.721 2.877.014.117.165.179.268.151.123-.034.165-.151.151-.268-.11-.734.02-1.517.398-2.155.055-.09.11-.179.172-.254.144.466.439.858.968.947.377.062.782-.055.982-.398.185-.323.137-.749-.076-1.051-.24-.336-.659-.487-1.064-.446l.014.007Zm.81 1.14c-.055.254-.282.357-.515.343-.467-.034-.68-.446-.755-.872.041-.027.089-.062.137-.082.268-.138.611-.151.872.007a.599.599 0 0 1 .261.604Zm-8.361-2.906c.02-.13-.069-.213-.186-.24-.714-.192-1.38-.618-1.819-1.222a2.116 2.116 0 0 1-.165-.261c.481.055.961-.069 1.25-.515.206-.323.254-.741.02-1.057-.219-.302-.631-.426-.988-.35-.405.082-.708.411-.831.796a1.59 1.59 0 0 0-.069.508l-.048-.021a3.502 3.502 0 0 1-1.627-1.661c-.117-.254-.522-.096-.398.158.37.796.995 1.455 1.778 1.86.124.062.254.117.391.165.028.076.055.151.09.227.453.92 1.386 1.545 2.355 1.806.109.027.226-.076.24-.186l.007-.007Zm-2.362-2.348c-.021-.295.103-.625.35-.796a.615.615 0 0 1 .659 0c.213.144.22.398.11.611-.22.419-.673.446-1.099.343-.006-.055-.02-.103-.02-.158Zm-4.857-11.946c1.023-.082 1.943-.721 2.54-1.531.069-.096.014-.24-.082-.295-.11-.062-.227-.014-.296.082a3.295 3.295 0 0 1-1.805 1.243 1.61 1.61 0 0 1-.303.055c.227-.433.296-.92-.02-1.353-.22-.309-.591-.508-.982-.412-.357.096-.625.433-.686.797-.069.405.116.81.439 1.064.137.11.288.192.446.247-.014.014-.027.028-.041.035a3.511 3.511 0 0 1-2.142.906c-.275.014-.275.446 0 .432a4.014 4.014 0 0 0 2.382-.968c.103-.089.206-.192.302-.302h.248Zm-.44-.453a.708.708 0 0 1-.158-.041c-.281-.089-.542-.323-.611-.618a.607.607 0 0 1 .24-.611c.213-.144.454-.055.612.123.309.357.164.79-.083 1.147Zm21.533 10.285c-.886.522-1.435 1.49-1.627 2.479-.021.117.096.22.199.227.13.006.206-.09.227-.2a3.334 3.334 0 0 1 1.084-1.901c.076-.069.165-.131.247-.186-.02.488.138.955.605 1.209.336.185.755.206 1.057-.055.282-.241.378-.666.275-1.016-.117-.399-.46-.68-.859-.769a1.413 1.413 0 0 0-.508-.028c0-.014.014-.034.021-.048a3.528 3.528 0 0 1 1.538-1.744c.24-.137.055-.522-.185-.391a3.949 3.949 0 0 0-1.724 1.909c-.055.123-.103.26-.137.405a2.144 2.144 0 0 0-.22.109h.007Zm.591.22c.054-.014.102-.027.157-.034.296-.041.625.062.817.295a.609.609 0 0 1 .048.652c-.13.22-.384.247-.604.151-.432-.185-.494-.638-.425-1.071l.007.007Zm-13.614-19.829c.137.02.281.027.425.027.048.062.103.124.165.179.735.7 1.813.968 2.815.899.117-.007.192-.144.172-.247-.028-.124-.138-.172-.254-.165-.742.048-1.511-.13-2.122-.535a2.004 2.004 0 0 1-.24-.186c.474-.103.886-.364 1.016-.865.089-.357 0-.755-.33-.975-.308-.206-.741-.185-1.05 0-.357.206-.536.598-.522.989 0 .172.041.329.103.481h-.055a3.55 3.55 0 0 1-2.08-1.003c-.192-.192-.522.083-.33.275a4.08 4.08 0 0 0 2.287 1.133v-.007Zm.645-1.373a.616.616 0 0 1 .618-.213c.247.068.336.295.302.522-.069.446-.494.617-.927.659-.027-.048-.055-.09-.075-.138-.117-.267-.103-.597.075-.837l.007.007Zm10.414 9.339c-.673.625-1.037 1.545-1.113 2.452-.006.116.117.213.227.206.131 0 .199-.11.206-.227.062-.742.357-1.47.872-2.012l.062-.062c-.082-.117-.172-.234-.254-.35v-.007Zm-12.316 32.385a1.569 1.569 0 0 0-.508.028c0-.021.006-.035.013-.055a3.485 3.485 0 0 1 1.339-1.902c.227-.158 0-.529-.226-.364a3.974 3.974 0 0 0-1.504 2.087 2.635 2.635 0 0 0-.089.419c-.069.041-.138.082-.206.13-.824.618-1.264 1.641-1.346 2.644-.007.116.117.213.227.206.13 0 .199-.11.206-.227.061-.741.357-1.469.871-2.012.069-.075.145-.144.227-.212.034.487.24.933.735 1.139.35.145.776.117 1.043-.171.254-.275.302-.701.165-1.037-.158-.384-.529-.625-.934-.673h-.013Zm.535 1.291c-.103.233-.35.288-.583.22-.454-.138-.563-.584-.543-1.017.048-.02.103-.034.151-.048.289-.068.632-.013.845.206a.614.614 0 0 1 .123.646l.007-.007Zm-49.276-49.016a1.806 1.806 0 0 0-.494.137v-.055a3.525 3.525 0 0 1 .879-2.155c.185-.206-.124-.515-.302-.303a4.003 4.003 0 0 0-1.003 2.369 4.323 4.323 0 0 0 0 .426c-.061.055-.116.11-.171.171-.666.783-.865 1.882-.721 2.877.013.117.165.179.268.151.123-.034.164-.151.151-.267-.11-.735.02-1.518.398-2.156.055-.09.11-.179.171-.254.145.467.44.858.968.947.378.062.783-.055.982-.398.186-.323.138-.748-.075-1.051-.241-.336-.659-.487-1.064-.446l.013.007Zm.81 1.14c-.054.254-.281.357-.514.343-.467-.034-.68-.446-.756-.872.041-.027.09-.062.138-.082.267-.138.611-.151.872.007a.597.597 0 0 1 .26.604Zm10.094 16.685c1.023-.082 1.943-.721 2.54-1.531.069-.096.014-.24-.082-.295-.11-.062-.226-.014-.295.082a3.311 3.311 0 0 1-1.806 1.243 1.6 1.6 0 0 1-.302.055c.227-.433.295-.92-.021-1.353-.219-.309-.59-.508-.981-.412-.357.096-.625.433-.687.797-.069.405.117.81.439 1.064.138.11.289.192.447.247a.199.199 0 0 1-.041.034 3.507 3.507 0 0 1-2.143.907c-.274.013-.274.446 0 .432a4.017 4.017 0 0 0 2.383-.968c.103-.089.206-.192.302-.302h.247Zm-.439-.453a.708.708 0 0 1-.158-.041c-.282-.09-.543-.323-.611-.618a.606.606 0 0 1 .24-.611c.213-.144.453-.055.611.123.309.357.165.79-.082 1.147Zm3.093-9.922c.138.02.282.027.426.027.048.062.103.124.165.185.734.721 1.812 1.003 2.815.934.116-.007.192-.151.171-.254-.027-.124-.137-.178-.254-.172a3.353 3.353 0 0 1-2.121-.556c-.083-.062-.165-.123-.241-.192.474-.11.886-.378 1.017-.899.089-.371 0-.783-.33-1.01-.309-.212-.741-.192-1.05 0-.357.213-.536.618-.522 1.023 0 .172.041.344.103.502h-.055a3.556 3.556 0 0 1-2.081-1.037c-.192-.199-.521.082-.329.281a3.956 3.956 0 0 0 2.286 1.174v-.006Zm.646-1.422a.608.608 0 0 1 .618-.219c.247.068.336.309.302.542-.069.467-.495.645-.927.687a1.558 1.558 0 0 1-.076-.145c-.116-.274-.103-.624.076-.865h.007Zm1.65-8.575a3.98 3.98 0 0 0-.13.405 1.734 1.734 0 0 0-.22.117c-.872.543-1.401 1.531-1.566 2.52-.02.117.103.22.206.226.131 0 .206-.089.227-.205.124-.735.481-1.435 1.037-1.93a2.45 2.45 0 0 1 .247-.192c0 .487.158.947.638 1.195.337.171.762.185 1.058-.083.274-.247.364-.673.247-1.023-.124-.391-.474-.666-.872-.748a1.427 1.427 0 0 0-.508-.014c0-.02.014-.034.02-.048a3.493 3.493 0 0 1 1.497-1.778c.24-.144.041-.529-.199-.385a3.98 3.98 0 0 0-1.675 1.95l-.007-.007Zm1.229.962a.613.613 0 0 1 .069.652c-.124.226-.378.254-.598.165-.439-.179-.508-.632-.453-1.058.055-.013.103-.027.158-.034.295-.048.632.041.824.275Zm-29.029 12.956c.13 0 .199-.11.206-.227.062-.741.357-1.469.872-2.011.068-.076.144-.145.226-.213.035.487.241.934.735 1.139.35.145.776.117 1.044-.171.254-.275.302-.7.164-1.037-.158-.384-.528-.625-.933-.673a1.577 1.577 0 0 0-.509.028c0-.021.007-.035.014-.055a3.485 3.485 0 0 1 1.339-1.902c.227-.158 0-.529-.227-.364a3.977 3.977 0 0 0-1.503 2.087 2.635 2.635 0 0 0-.089.419 2.727 2.727 0 0 0-.206.131c-.824.617-1.264 1.64-1.346 2.643-.007.117.117.213.227.206h-.014Zm1.73-2.698c.048-.021.103-.035.151-.048.288-.069.632-.014.845.205a.616.616 0 0 1 .123.646c-.103.233-.35.288-.583.22-.454-.138-.564-.584-.543-1.017l.007-.006Zm8.423 43.989c-.714-.192-1.38-.618-1.819-1.222a2.116 2.116 0 0 1-.165-.261c.481.055.961-.069 1.25-.515.206-.323.254-.741.02-1.057-.219-.302-.631-.426-.988-.35-.405.082-.707.412-.831.796a1.59 1.59 0 0 0-.069.508c-.013-.007-.034-.014-.048-.021a3.502 3.502 0 0 1-1.627-1.661c-.117-.254-.522-.096-.398.158a3.999 3.999 0 0 0 1.778 1.861c.124.061.254.116.391.164.028.076.055.151.09.227.453.92 1.387 1.545 2.355 1.806.11.027.226-.076.24-.186.021-.13-.069-.213-.185-.24l.006-.007Zm-2.176-2.108c-.021-.295.103-.625.35-.796a.615.615 0 0 1 .659 0c.213.144.22.398.11.611-.22.419-.673.446-1.098.343-.007-.055-.021-.103-.021-.158Zm-17.335 1.332a2.884 2.884 0 0 0-.426 0 1.983 1.983 0 0 0-.171-.172c-.563-.487-1.298-.727-2.033-.769l-.048.419a3.22 3.22 0 0 1 1.477.44c.089.054.171.109.254.178-.467.137-.859.439-.948.968-.062.378.055.783.398.982.323.192.749.144 1.051-.069.336-.24.494-.652.453-1.057a1.796 1.796 0 0 0-.137-.494h.055a3.526 3.526 0 0 1 2.149.892c.206.186.514-.117.309-.302a4.027 4.027 0 0 0-2.362-1.016h-.021Zm-.549 1.462a.613.613 0 0 1-.604.261c-.254-.055-.357-.281-.337-.522.035-.466.446-.672.872-.748l.083.137c.13.268.151.611-.014.872Zm12.358 5.424c-.11-.062-.227-.014-.296.083a3.299 3.299 0 0 1-1.805 1.242 1.524 1.524 0 0 1-.302.055c.226-.432.295-.92-.021-1.352-.22-.309-.59-.508-.982-.412-.357.096-.625.432-.686.796-.069.405.116.81.439 1.064.137.11.288.192.446.247a.163.163 0 0 1-.041.035 3.506 3.506 0 0 1-2.142.906c-.275.014-.275.446 0 .433a4.02 4.02 0 0 0 2.382-.968c.103-.09.206-.193.303-.303h.247c1.023-.082 1.943-.72 2.54-1.531.069-.096.014-.24-.082-.295Zm-2.898 1.373a.658.658 0 0 1-.158-.041c-.281-.089-.542-.323-.611-.618a.606.606 0 0 1 .241-.611c.212-.144.453-.055.611.124.309.357.164.789-.083 1.146Z" fill="#2F0277"/><path d="m384.668 391.769 41.627-23.666-28.857-53.753c-6.124-11.411-18.799-17.7-31.596-15.681l-48.205 7.628v50.518l44.023-5.218 23.001 40.179.007-.007Z" fill="#fff"/><path d="m384.668 391.769 41.627-23.666-28.857-53.753c-6.124-11.411-18.799-17.7-31.596-15.681l-48.205 7.628v50.518l44.023-5.218 23.001 40.179.007-.007Z" fill="url(#d)" fill-opacity=".8"/><path d="m321.386 305.707 20.488 48.232-24.229 2.877v-50.518l3.741-.591Z" fill="#171255"/><path d="m319.807 317.735 47.154-7.23a17.42 17.42 0 0 1 17.728 8.514l30.676 53.176" stroke="#171255" stroke-width="1.423" stroke-miterlimit="10"/><path d="m332.672 332.276 31.624-4.861a8.7 8.7 0 0 1 8.857 4.257l28.17 48.987" stroke="#171255" stroke-width="1.423" stroke-miterlimit="10"/><path d="m381.053 392.456 48.734-28.514a2.36 2.36 0 0 1 2.025-.164c4.566 1.757 23.124 8.685 36.664 10.635 2.265.322 2.732 3.391.686 4.415l-51.356 25.595a2.326 2.326 0 0 1-1.936.069l-15.283-6.289a2.343 2.343 0 0 0-3.234 2.197l.165 12.049a2.36 2.36 0 0 1-.817 1.813l-4.614 3.941c-1.236 1.05-3.138.57-3.715-.948l-8.321-21.943a2.337 2.337 0 0 1 1.009-2.849l-.007-.007Z" fill="#fff"/><path d="m437.698 377.502 6.824-9.207m-1.01 8.342 5.712-7.69m-12.687 4.628 4.525-6.096m2.938.947c.172.666-.638 1.139-1.14.666-3.24-3.104-9.818-10.107-6.625-13.238 3.268-3.213 6.516 7.731 7.765 12.578v-.006Zm.419-.879c.027.687.941.907 1.277.302 2.204-3.906 6.468-12.516 2.513-14.59-4.058-2.128-4.003 9.29-3.79 14.288Z" stroke="#171255" stroke-width="1.423" stroke-miterlimit="10"/><path d="m469.173 378.821-51.363 25.596a2.332 2.332 0 0 1-1.929.075l-8.074-3.316 55.27-27.731c1.86.392 3.68.728 5.403.975 2.266.33 2.739 3.392.693 4.415v-.014Zm-71.735 27.546.082 6.076a2.347 2.347 0 0 1-.81 1.813l-4.62 3.941c-1.229 1.057-3.138.57-3.715-.947l-2.011-5.321 11.074-5.562Z" fill="#171255"/><path d="m351.244 333.457 32.551 57.446 11.637-6.927" stroke="#171255" stroke-width="1.423" stroke-miterlimit="10"/><path d="M265.056 339.959h-39.622v23h39.622v-23Z" fill="#171255"/><path d="M263.242 320.694v71.081h56.56v-100c0-26.166-30.807-40.151-50.504-22.932l-77.138 67.436.398 3.151c2.953 23.262 29.983 34.604 48.651 20.412l22.026-16.251V320.7l.007-.006Z" fill="#fff"/><path d="M263.242 320.694v71.081h56.56v-100c0-26.166-30.807-40.151-50.504-22.932l-77.138 67.436.398 3.151c2.953 23.262 29.983 34.604 48.651 20.412l22.026-16.251V320.7l.007-.006Z" fill="url(#e)" fill-opacity=".8"/><path d="M263.242 320.693v68.514l14.24-1.373" stroke="#171255" stroke-width="1.423" stroke-miterlimit="10"/><path d="m195.01 348.177 79.526-66.008c5.665-4.703 14.247-.672 14.247 6.688V390.58m17.266.001v-123.64" stroke="#171255" stroke-width="1.423" stroke-miterlimit="10"/><path d="m264.081 389.908 56.354-3.502a2.353 2.353 0 0 1 1.881.769c3.289 3.625 16.732 18.174 27.944 26.008 1.875 1.311.913 4.257-1.373 4.25l-57.384-.288a2.315 2.315 0 0 1-1.758-.811l-10.814-12.495c-1.098-1.271-3.137-1.003-3.879.508l-5.28 10.827a2.336 2.336 0 0 1-1.551 1.25l-5.898 1.441a2.34 2.34 0 0 1-2.884-2.519l2.451-23.344a2.338 2.338 0 0 1 2.184-2.094h.007Z" fill="#fff"/><path d="m321.385 402.075 10.244-5.136m-4.662 6.99 8.568-4.298m-13.416-1.579 6.79-3.406m2.192 2.17c-.144.672-1.085.727-1.311.082-1.497-4.229-4.209-13.443.048-14.803 4.366-1.393 2.334 9.839 1.263 14.728v-.007Zm.767-.597c-.281.625.433 1.229 1.002.851 3.729-2.492 11.411-8.259 8.816-11.898-2.595-3.639-7.758 6.495-9.818 11.047Z" stroke="#171255" stroke-width="1.423" stroke-miterlimit="10"/><path d="m348.887 417.434-57.385-.289a2.318 2.318 0 0 1-1.751-.803l-5.712-6.598 61.834.137a87.61 87.61 0 0 0 4.387 3.303c1.874 1.311.92 4.264-1.373 4.25Zm-76.451-7.725-2.664 5.465a2.342 2.342 0 0 1-1.538 1.25l-5.897 1.442c-1.573.391-3.056-.907-2.891-2.513l.597-5.658 12.393.021v-.007Z" fill="#171255"/><path d="M213.616 254.713c0 6.392-4.621 8.96-11.013 8.96-6.392 0-11.576-5.184-11.576-11.576s5.184-11.576 11.576-11.576 11.013 7.8 11.013 14.192Z" fill="#FF8E92"/><path d="M216.725 203.234c0-.982-.11-1.95-.323-2.877-1.647-7.292-9.44-12.812-18.812-12.812-5.019 0-9.578 1.6-12.99 4.188a23.865 23.865 0 0 0-9.434-14.219 24.032 24.032 0 0 0-6.419-3.268l4.463 13.677a23.316 23.316 0 0 0-10.004-2.232c-12.015 0-21.751 8.919-21.751 19.918 0 2.451.488 4.806 1.373 6.976-5.87 2.725-9.873 8.115-9.873 14.315 0 8.96 8.329 16.217 18.607 16.217 3.254 0 6.316-.735 8.973-2.012 2.239 3.316 6.365 5.541 11.102 5.541 1.964 0 3.825-.384 5.486-1.064.124-.048.233-.11.357-.158 1.689 1.153 3.824 1.84 6.131 1.84 4.182 0 7.759-2.238 9.235-5.417a7.728 7.728 0 0 0 .721-2.877c.013-.13.013-.261.013-.384 0-.186-.013-.378-.02-.563a21.919 21.919 0 0 1-2.431-2.596c8.679-1.49 15.194-7.792 15.194-15.345 0-.947-.123-1.874-.316-2.78 6.345-2.555 10.725-7.882 10.725-14.062l-.007-.006Z" fill="#171255"/><path d="M182.754 246.9c-.117.055-.234.11-.357.158-.089.035-.186.062-.282.097.392.048.79.082 1.195.089a8.029 8.029 0 0 1-.556-.35v.006Zm-44.524-18.517c0-6.207 4.003-11.59 9.873-14.315a18.388 18.388 0 0 1-1.373-6.976c0-10.999 9.736-19.918 21.751-19.918 1.256 0 2.485.103 3.68.289a23.34 23.34 0 0 0-8.953-1.765c-12.015 0-21.751 8.919-21.751 19.918 0 2.451.487 4.806 1.373 6.976-5.87 2.725-9.873 8.115-9.873 14.315 0 8.067 6.763 14.734 15.613 15.99-6.124-2.657-10.34-8.149-10.34-14.514Z" fill="#00C6FF"/><path d="M213.616 240.687v14.026l-22.589-3.563 2.163-8.617.721-2.876.192-.762c3.138 2.725 6.969 4.332 11.116 4.332 3.234 0 6.035-.906 8.39-2.534l.007-.006Z" fill="#FF8E92"/><path d="M205.216 243.213c-4.147 0-7.985-1.606-11.115-4.332l-.193.762-.72 2.877 20.425 10.422V240.68c-2.362 1.627-5.163 2.533-8.39 2.533h-.007Z" fill="#FFA49F" style="mix-blend-mode:multiply"/><path d="M222.457 220.755c-.453 8.864-3.501 16.244-8.843 19.931-2.362 1.627-5.163 2.534-8.39 2.534-4.147 0-7.985-1.607-11.116-4.333-.061-.061-.137-.116-.205-.185-1.71-1.538-3.214-3.426-4.429-5.561a8.889 8.889 0 0 1-5.506-.989 9.228 9.228 0 0 1-1.95-1.414 8.93 8.93 0 0 1-2.486-4.188 8.815 8.815 0 0 1-.315-2.349c0-4.112 2.76-7.586 6.529-8.664.247-.076.515-.138.776-.186v-.013a9.026 9.026 0 0 1 8.953 3.453v.014c.7.062 1.4.096 2.121.096 10.567 0 19.135-7.024 19.135-15.675 0-.981-.11-1.95-.322-2.876 4.202 3.522 6.591 9.934 6.055 20.391l-.007.014Z" fill="#FF8E92"/><path d="M211.98 194.232a24.04 24.04 0 0 1 6.42 3.269c10.766 7.696 13.251 22.664 5.548 33.429" fill="#171255"/><path d="M222.017 225.047c-1.092 6.927-3.948 12.564-8.404 15.633-2.362 1.628-5.163 2.534-8.39 2.534-4.147 0-7.985-1.607-11.116-4.333m-3.08 11.905 2.163-7.882" stroke="#171255" stroke-width="1.423" stroke-miterlimit="10"/><path d="m242.354 254.157 13.628 12.249-28.665 3.501-9.653-17.315 24.69 1.565Z" fill="#fff"/><path d="M205.767 334.927c-4.229 5.177-11.095 5.177-15.324 0l-26.283-32.159c-4.229-5.177-4.229-13.574 0-18.751 4.23-5.176 11.095-5.176 15.325 0l26.282 32.16c4.229 5.177 4.229 13.574 0 18.75Z" fill="#FF8E92"/><path d="m253.891 284.373-56.473 36.404 6.067 9.334a12.28 12.28 0 0 0 14.351-3.274l36.055-42.464Z" fill="#171255"/><path d="m199.87 332.991-7.052-11.727c-1.558-2.588-1.009-6.247 1.195-7.998l57.227-45.301c1.496-1.098 3.316-1.325 4.963-.604l7.306 3.193c.988.432 1.229 2.018.419 2.849l-57.399 60.515c-2.011 2.122-5.08 1.696-6.653-.92l-.006-.007Z" fill="#FF8E92"/><path d="m194.014 313.266 57.226-45.301c1.497-1.098 3.316-1.325 4.964-.604l7.305 3.193-7.305 7.305m1.378-9.894-7.023 7.017" stroke="#171255" stroke-width="1.423" stroke-miterlimit="10"/><path d="m155.805 283.633 5.842 30.086 31.109-23.481-16.951-33.066-20 26.461Z" fill="#fff"/><path d="M186.055 229.441a5.023 5.023 0 0 1-3.344-4.737 5.028 5.028 0 0 1 6.454-4.82" stroke="#171255" stroke-width="1.423" stroke-miterlimit="10"/><path d="m291.252 206.928-2.067 47.264-33.203 30.711" stroke="#fff" stroke-width="2.135" stroke-miterlimit="10"/></g><path d="M41.85 428.346h87.053m374.163 10.045h87.054m-452.847-10.045h23.438M0 418.787h631" stroke="#000" stroke-width="1.685" stroke-miterlimit="10"/><defs><linearGradient id="b" x1="537.678" y1="134.778" x2="555.111" y2="134.778" gradientUnits="userSpaceOnUse"><stop stop-color="#F7C63F"/><stop offset=".55" stop-color="#F25050"/><stop offset=".68" stop-color="#F14E53"/><stop offset=".78" stop-color="#F0495E"/><stop offset=".89" stop-color="#ED406F"/><stop offset=".98" stop-color="#EA3588"/><stop offset=".99" stop-color="#EA348B"/></linearGradient><linearGradient id="c" x1="157.433" y1="14.543" x2="353.173" y2="18.052" gradientUnits="userSpaceOnUse"><stop stop-color="#7BFD9E"/><stop offset=".1" stop-color="#57D8C4"/><stop offset=".16" stop-color="#42C3DC"/><stop offset=".34" stop-color="#3975F1"/><stop offset=".42" stop-color="#665DF0"/><stop offset=".56" stop-color="#C32EF0"/><stop offset=".63" stop-color="#CE30C4"/><stop offset=".77" stop-color="#EB3557"/><stop offset=".79" stop-color="#EF364B"/><stop offset="1" stop-color="#FDF177"/></linearGradient><linearGradient id="d" x1="311.764" y1="282.974" x2="426.577" y2="433.256" gradientUnits="userSpaceOnUse"><stop stop-color="#F7C63F"/><stop offset=".55" stop-color="#F25050"/><stop offset=".68" stop-color="#F14E53"/><stop offset=".78" stop-color="#F0495E"/><stop offset=".89" stop-color="#ED406F"/><stop offset=".98" stop-color="#EA3588"/><stop offset=".99" stop-color="#EA348B"/></linearGradient><linearGradient id="e" x1="217.02" y1="282.973" x2="356.101" y2="451.924" gradientUnits="userSpaceOnUse"><stop stop-color="#F7C63F"/><stop offset=".55" stop-color="#F25050"/><stop offset=".68" stop-color="#F14E53"/><stop offset=".78" stop-color="#F0495E"/><stop offset=".89" stop-color="#ED406F"/><stop offset=".98" stop-color="#EA3588"/><stop offset=".99" stop-color="#EA348B"/></linearGradient><clipPath id="a"><path fill="#fff" transform="translate(92.068 .61)" d="M0 0h494.235v437.654H0z"/></clipPath></defs></svg>